<svg width="137" height="167" viewBox="0 0 137 167" fill="none" xmlns="http://www.w3.org/2000/svg">
<g filter="url(#filter0_d)">
<rect x="4" width="129" height="159" rx="5" fill="#1F1F1F"/>
<rect x="71.5" y="135.5" width="56.5605" height="15.4164" rx="7.70819" fill="#1F1F1F" stroke="#8DFBC9"/>
<path d="M81.4716 146H85.6193V144.994H83.1761V144.955L84.0256 144.122C85.2216 143.031 85.5426 142.486 85.5426 141.824C85.5426 140.815 84.7188 140.102 83.4716 140.102C82.25 140.102 81.4119 140.832 81.4148 141.974H82.5824C82.5795 141.418 82.9318 141.077 83.4631 141.077C83.9744 141.077 84.3551 141.395 84.3551 141.906C84.3551 142.369 84.071 142.688 83.5426 143.196L81.4716 145.114V146ZM90.7919 146.128C92.255 146.128 93.1385 145.014 93.1413 143.097C93.1442 141.193 92.2493 140.102 90.7919 140.102C89.3317 140.102 88.4453 141.19 88.4425 143.097C88.4368 145.009 89.326 146.125 90.7919 146.128ZM90.7919 145.108C90.1243 145.108 89.6925 144.438 89.6953 143.097C89.6982 141.776 90.1271 141.111 90.7919 141.111C91.4538 141.111 91.8857 141.776 91.8857 143.097C91.8885 144.438 91.4567 145.108 90.7919 145.108ZM98.2997 146.128C99.7628 146.128 100.646 145.014 100.649 143.097C100.652 141.193 99.7571 140.102 98.2997 140.102C96.8395 140.102 95.9531 141.19 95.9503 143.097C95.9446 145.009 96.8338 146.125 98.2997 146.128ZM98.2997 145.108C97.6321 145.108 97.2003 144.438 97.2031 143.097C97.206 141.776 97.6349 141.111 98.2997 141.111C98.9616 141.111 99.3935 141.776 99.3935 143.097C99.3963 144.438 98.9645 145.108 98.2997 145.108ZM108.565 140.182H107.17L108.957 143.091L107.136 146H108.545L109.739 144.014H109.784L110.977 146H112.392L110.577 143.091L112.352 140.182H110.963L109.784 142.165H109.739L108.565 140.182ZM115.131 146H116.361V144.114H117.395C118.733 144.114 119.511 143.315 119.511 142.153C119.511 140.997 118.747 140.182 117.426 140.182H115.131V146ZM116.361 143.128V141.188H117.19C117.901 141.188 118.244 141.574 118.244 142.153C118.244 142.73 117.901 143.128 117.196 143.128H116.361Z" fill="#8DFBC9"/>
<rect width="108.152" height="95.8202" rx="8" transform="matrix(1 0 0 -1 13.1211 126.944)" fill="#434343"/>
<g opacity="0.3">
<path d="M87.75 56C87.5511 56 87.3603 56.079 87.2197 56.2197C87.079 56.3603 87 56.5511 87 56.75C87 56.9489 87.079 57.1397 87.2197 57.2803C87.3603 57.421 87.5511 57.5 87.75 57.5C87.9489 57.5 88.1397 57.421 88.2803 57.2803C88.421 57.1397 88.5 56.9489 88.5 56.75C88.5 56.5511 88.421 56.3603 88.2803 56.2197C88.1397 56.079 87.9489 56 87.75 56Z" fill="#00D395"/>
<path d="M67.5 56.75C60.1402 56.75 53.0819 59.6737 47.8778 64.8778C42.6737 70.0819 39.75 77.1402 39.75 84.5C39.75 91.8598 42.6737 98.9181 47.8778 104.122C53.0819 109.326 60.1402 112.25 67.5 112.25C74.8598 112.25 81.9181 109.326 87.1222 104.122C92.3263 98.9181 95.25 91.8598 95.25 84.5C95.25 77.1402 92.3263 70.0819 87.1222 64.8778C81.9181 59.6737 74.8598 56.75 67.5 56.75Z" fill="#74CCA4"/>
<path d="M92.25 55.25C91.4544 55.25 90.6913 55.5661 90.1287 56.1287C89.5661 56.6913 89.25 57.4544 89.25 58.25C89.25 59.0456 89.5661 59.8087 90.1287 60.3713C90.6913 60.9339 91.4544 61.25 92.25 61.25C93.0456 61.25 93.8087 60.9339 94.3713 60.3713C94.9339 59.8087 95.25 59.0456 95.25 58.25C95.25 57.4544 94.9339 56.6913 94.3713 56.1287C93.8087 55.5661 93.0456 55.25 92.25 55.25Z" fill="#00D395"/>
<path d="M95.25 63.5C94.8522 63.5 94.4706 63.658 94.1893 63.9393C93.908 64.2206 93.75 64.6022 93.75 65C93.75 65.3978 93.908 65.7794 94.1893 66.0607C94.4706 66.342 94.8522 66.5 95.25 66.5C95.6478 66.5 96.0294 66.342 96.3107 66.0607C96.592 65.7794 96.75 65.3978 96.75 65C96.75 64.6022 96.592 64.2206 96.3107 63.9393C96.0294 63.658 95.6478 63.5 95.25 63.5Z" fill="#8889B9"/>
<path d="M90.75 102.5C90.3522 102.5 89.9706 102.658 89.6893 102.939C89.408 103.221 89.25 103.602 89.25 104C89.25 104.398 89.408 104.779 89.6893 105.061C89.9706 105.342 90.3522 105.5 90.75 105.5C91.1478 105.5 91.5294 105.342 91.8107 105.061C92.092 104.779 92.25 104.398 92.25 104C92.25 103.602 92.092 103.221 91.8107 102.939C91.5294 102.658 91.1478 102.5 90.75 102.5ZM41.25 91.25C40.4544 91.25 39.6913 91.5661 39.1287 92.1287C38.5661 92.6913 38.25 93.4544 38.25 94.25C38.25 95.0456 38.5661 95.8087 39.1287 96.3713C39.6913 96.9339 40.4544 97.25 41.25 97.25C42.0456 97.25 42.8087 96.9339 43.3713 96.3713C43.9339 95.8087 44.25 95.0456 44.25 94.25C44.25 93.4544 43.9339 92.6913 43.3713 92.1287C42.8087 91.5661 42.0456 91.25 41.25 91.25Z" fill="#FBCD59"/>
<path d="M48.75 110.75C48.3522 110.75 47.9706 110.908 47.6893 111.189C47.408 111.471 47.25 111.852 47.25 112.25C47.25 112.648 47.408 113.029 47.6893 113.311C47.9706 113.592 48.3522 113.75 48.75 113.75C49.1478 113.75 49.5294 113.592 49.8107 113.311C50.092 113.029 50.25 112.648 50.25 112.25C50.25 111.852 50.092 111.471 49.8107 111.189C49.5294 110.908 49.1478 110.75 48.75 110.75Z" fill="#8889B9"/>
<path d="M43.875 83.75C43.3777 83.75 42.9008 83.9475 42.5492 84.2992C42.1975 84.6508 42 85.1277 42 85.625C42 86.1223 42.1975 86.5992 42.5492 86.9508C42.9008 87.3025 43.3777 87.5 43.875 87.5C44.3723 87.5 44.8492 87.3025 45.2008 86.9508C45.5525 86.5992 45.75 86.1223 45.75 85.625C45.75 85.1277 45.5525 84.6508 45.2008 84.2992C44.8492 83.9475 44.3723 83.75 43.875 83.75ZM89.625 71C89.3266 71 89.0405 71.1185 88.8295 71.3295C88.6185 71.5405 88.5 71.8266 88.5 72.125C88.5 72.4234 88.6185 72.7095 88.8295 72.9205C89.0405 73.1315 89.3266 73.25 89.625 73.25C89.9234 73.25 90.2095 73.1315 90.4205 72.9205C90.6315 72.7095 90.75 72.4234 90.75 72.125C90.75 71.8266 90.6315 71.5405 90.4205 71.3295C90.2095 71.1185 89.9234 71 89.625 71Z" fill="white"/>
<path d="M56.2494 101.225C53.2307 101.225 50.7744 98.7694 50.7744 95.7499V73.2499C50.7744 70.2312 53.2299 67.7749 56.2494 67.7749H78.7494C81.7682 67.7749 84.2244 70.2304 84.2244 73.2499V95.7499C84.2244 98.7687 81.7689 101.225 78.7494 101.225H56.2494Z" fill="#8889B9"/>
<path d="M78.75 68.3C81.4792 68.3 83.7 70.5208 83.7 73.25V95.75C83.7 98.4792 81.4792 100.7 78.75 100.7H56.25C53.5208 100.7 51.3 98.4792 51.3 95.75V73.25C51.3 70.5208 53.5208 68.3 56.25 68.3H78.75ZM78.75 67.25H56.25C52.95 67.25 50.25 69.95 50.25 73.25V95.75C50.25 99.05 52.95 101.75 56.25 101.75H78.75C82.05 101.75 84.75 99.05 84.75 95.75V73.25C84.75 69.95 82.05 67.25 78.75 67.25Z" fill="#564F7D"/>
<path d="M56.2494 101.225C53.2307 101.225 50.7744 98.7694 50.7744 95.7499V73.2499C50.7744 70.2312 53.2299 67.7749 56.2494 67.7749H78.7494C81.7682 67.7749 84.2244 70.2304 84.2244 73.2499V95.7499C84.2244 98.7687 81.7689 101.225 78.7494 101.225H56.2494Z" fill="#8889B9"/>
<path d="M78.75 68.3C81.4792 68.3 83.7 70.5208 83.7 73.25V95.75C83.7 98.4792 81.4792 100.7 78.75 100.7H56.25C53.5208 100.7 51.3 98.4792 51.3 95.75V73.25C51.3 70.5208 53.5208 68.3 56.25 68.3H78.75ZM78.75 67.25H56.25C52.95 67.25 50.25 69.95 50.25 73.25V95.75C50.25 99.05 52.95 101.75 56.25 101.75H78.75C82.05 101.75 84.75 99.05 84.75 95.75V73.25C84.75 69.95 82.05 67.25 78.75 67.25Z" fill="#564F7D"/>
<path d="M81.375 82.9063V84.2188V95C81.375 96.8563 79.8563 98.375 78 98.375H57C55.1438 98.375 53.625 96.8563 53.625 95V74C53.625 72.1438 55.1438 70.625 57 70.625H76.0313H78C79.8563 70.625 81.375 72.1438 81.375 74V76.5313V78.0313V78.7813V79.625V81.7813V82.9063Z" fill="#FDFCEE"/>
<path d="M81.375 82.5312C81.168 82.5312 81 82.3633 81 82.1562V79.25C81 79.043 81.168 78.875 81.375 78.875C81.582 78.875 81.75 79.043 81.75 79.25V82.1562C81.75 82.3633 81.582 82.5312 81.375 82.5312Z" fill="#564F7D"/>
<path d="M81.375 77.375C81.168 77.375 81 77.207 81 77V75.5C81 75.293 81.168 75.125 81.375 75.125C81.582 75.125 81.75 75.293 81.75 75.5V77C81.75 77.207 81.582 77.375 81.375 77.375Z" fill="#564F7D"/>
<path d="M78 98.75H57C54.9322 98.75 53.25 97.0677 53.25 95V74C53.25 71.9322 54.9322 70.25 57 70.25H76.0312C76.2382 70.25 76.4062 70.418 76.4062 70.625C76.4062 70.832 76.2382 71 76.0312 71H57C55.3455 71 54 72.3455 54 74V95C54 96.6545 55.3455 98 57 98H78C79.6545 98 81 96.6545 81 95V84.2187C81 84.0117 81.168 83.8437 81.375 83.8437C81.582 83.8437 81.75 84.0117 81.75 84.2187V95C81.75 97.0677 80.0677 98.75 78 98.75Z" fill="#564F7D"/>
<path d="M65.1338 90.877V92.6912C65.1338 93.19 67.4588 93.5942 70.3268 93.5942C73.1948 93.5942 75.5198 93.19 75.5198 92.6912V90.877H65.1338Z" fill="#00D395"/>
<path d="M70.3266 93.8283C69.7716 93.8283 64.9033 93.7961 64.9033 92.6913V90.8771C64.9033 90.7473 65.0061 90.6431 65.1336 90.6431H75.5196C75.6471 90.6431 75.7498 90.7481 75.7498 90.8771V92.6913C75.7498 93.7961 70.8816 93.8283 70.3266 93.8283ZM65.3638 91.1111V92.6913C65.4913 92.8991 67.1323 93.3596 70.3266 93.3596C73.5208 93.3596 75.1618 92.8991 75.2946 92.6628L75.2901 91.1103H65.3638V91.1111Z" fill="#564F7D"/>
<path d="M70.3268 89.978C68.9495 89.978 67.6287 90.0732 66.6548 90.2425C65.6809 90.4119 65.1338 90.6415 65.1338 90.881C65.1338 91.1205 65.6809 91.3502 66.6548 91.5195C67.6287 91.6889 68.9495 91.784 70.3268 91.784C71.7041 91.784 73.0249 91.6889 73.9988 91.5195C74.9727 91.3502 75.5198 91.1205 75.5198 90.881C75.5198 90.6415 74.9727 90.4119 73.9988 90.2425C73.0249 90.0732 71.7041 89.978 70.3268 89.978Z" fill="#FFD683"/>
<path d="M70.3266 92.0177C69.7716 92.0177 64.9033 91.9854 64.9033 90.8807C64.9033 89.7759 69.7716 89.7437 70.3266 89.7437C70.8816 89.7437 75.7498 89.7759 75.7498 90.8807C75.7498 91.9854 70.8816 92.0177 70.3266 92.0177ZM70.3266 90.2117C67.1331 90.2117 65.4906 90.6722 65.3586 90.9084C65.4913 91.0892 67.1338 91.5497 70.3266 91.5497C73.3993 91.5497 75.0366 91.1222 75.2728 90.8814C75.0366 90.6392 73.4001 90.2117 70.3266 90.2117ZM75.2946 90.9077H75.3006H75.2946Z" fill="#564F7D"/>
<path d="M65.1338 87.8779V89.6922C65.1338 90.1909 67.4588 90.5952 70.3268 90.5952C73.1948 90.5952 75.5198 90.1909 75.5198 89.6922V87.8779H65.1338Z" fill="#00D395"/>
<path d="M70.3266 90.8288C69.7716 90.8288 64.9033 90.7966 64.9033 89.6918V87.8776C64.9033 87.7478 65.0061 87.6436 65.1336 87.6436H75.5196C75.6471 87.6436 75.7498 87.7486 75.7498 87.8776V89.6918C75.7498 90.7973 70.8816 90.8288 70.3266 90.8288ZM65.3638 88.1116V89.6918C65.4913 89.8996 67.1323 90.3601 70.3266 90.3601C73.5208 90.3601 75.1618 89.8996 75.2946 89.6633L75.2901 88.1108H65.3638V88.1116Z" fill="#564F7D"/>
<path d="M70.3268 86.9795C68.9495 86.9795 67.6287 87.0746 66.6548 87.244C65.6809 87.4133 65.1338 87.643 65.1338 87.8825C65.1338 88.122 65.6809 88.3517 66.6548 88.521C67.6287 88.6904 68.9495 88.7855 70.3268 88.7855C71.7041 88.7855 73.0249 88.6904 73.9988 88.521C74.9727 88.3517 75.5198 88.122 75.5198 87.8825C75.5198 87.643 74.9727 87.4133 73.9988 87.244C73.0249 87.0746 71.7041 86.9795 70.3268 86.9795Z" fill="#FFD683"/>
<path d="M70.3266 89.0191C69.7716 89.0191 64.9033 88.9869 64.9033 87.8821C64.9033 86.7774 69.7716 86.7451 70.3266 86.7451C70.8816 86.7451 75.7498 86.7774 75.7498 87.8821C75.7498 88.9869 70.8816 89.0191 70.3266 89.0191ZM70.3266 87.2124C67.1331 87.2124 65.4906 87.6729 65.3586 87.9091C65.4906 88.0899 67.1331 88.5504 70.3266 88.5504C73.4001 88.5504 75.0373 88.1229 75.2736 87.8821C75.0373 87.6399 73.4008 87.2124 70.3266 87.2124ZM75.2946 87.9091H75.3006H75.2946Z" fill="#564F7D"/>
<path d="M65.1338 84.8794V86.6936C65.1338 87.1924 67.4588 87.5966 70.3268 87.5966C73.1948 87.5966 75.5198 87.1924 75.5198 86.6936V84.8794H65.1338Z" fill="#00D395"/>
<path d="M70.3266 87.8303C69.7716 87.8303 64.9033 87.798 64.9033 86.6933V84.879C64.9033 84.7493 65.0061 84.645 65.1336 84.645H75.5196C75.6471 84.645 75.7498 84.75 75.7498 84.879V86.6933C75.7498 87.798 70.8816 87.8303 70.3266 87.8303ZM65.3638 85.113V86.6933C65.4913 86.901 67.1323 87.3615 70.3266 87.3615C73.5208 87.3615 75.1618 86.901 75.2946 86.6648L75.2901 85.1123H65.3638V85.113Z" fill="#564F7D"/>
<path d="M70.3268 83.98C68.9495 83.98 67.6287 84.0751 66.6548 84.2445C65.6809 84.4138 65.1338 84.6435 65.1338 84.883C65.1338 85.1225 65.6809 85.3522 66.6548 85.5215C67.6287 85.6908 68.9495 85.786 70.3268 85.786C71.7041 85.786 73.0249 85.6908 73.9988 85.5215C74.9727 85.3522 75.5198 85.1225 75.5198 84.883C75.5198 84.6435 74.9727 84.4138 73.9988 84.2445C73.0249 84.0751 71.7041 83.98 70.3268 83.98Z" fill="#FFD683"/>
<path d="M70.3266 86.0201C69.7716 86.0201 64.9033 85.9879 64.9033 84.8831C64.9033 83.7776 69.7716 83.7461 70.3266 83.7461C70.8816 83.7461 75.7498 83.7783 75.7498 84.8831C75.7498 85.9879 70.8816 86.0201 70.3266 86.0201ZM70.3266 84.2148C67.1331 84.2148 65.4906 84.6753 65.3586 84.9116C65.4906 85.0923 67.1331 85.5529 70.3266 85.5529C73.4001 85.5529 75.0373 85.1254 75.2736 84.8846C75.0373 84.6416 73.4008 84.2148 70.3266 84.2148ZM75.2946 84.9108H75.3006H75.2946Z" fill="#564F7D"/>
<path d="M65.1338 81.8809V83.6951C65.1338 84.1939 67.4588 84.5981 70.3268 84.5981C73.1948 84.5981 75.5198 84.1939 75.5198 83.6951V81.8809H65.1338Z" fill="#00D395"/>
<path d="M70.3266 84.8315C69.7716 84.8315 64.9033 84.7992 64.9033 83.6945V81.881C64.9033 81.7512 65.0061 81.647 65.1336 81.647H75.5196C75.6471 81.647 75.7498 81.752 75.7498 81.881V83.6945C75.7498 84.8007 70.8816 84.8315 70.3266 84.8315ZM65.3638 82.115V83.6945C65.4913 83.9022 67.1323 84.3627 70.3266 84.3627C73.5208 84.3627 75.1618 83.9022 75.2946 83.666L75.2901 82.1142H65.3638V82.115Z" fill="#564F7D"/>
<path d="M70.3268 80.9814C68.9495 80.9814 67.6287 81.0766 66.6548 81.2459C65.6809 81.4153 65.1338 81.645 65.1338 81.8844C65.1338 82.1239 65.6809 82.3536 66.6548 82.523C67.6287 82.6923 68.9495 82.7874 70.3268 82.7874C71.7041 82.7874 73.0249 82.6923 73.9988 82.523C74.9727 82.3536 75.5198 82.1239 75.5198 81.8844C75.5198 81.645 74.9727 81.4153 73.9988 81.2459C73.0249 81.0766 71.7041 80.9814 70.3268 80.9814Z" fill="#FFD683"/>
<path d="M70.3266 83.0216C69.7716 83.0216 64.9033 82.9893 64.9033 81.8846C64.9033 80.7791 69.7716 80.7476 70.3266 80.7476C70.8816 80.7476 75.7498 80.7798 75.7498 81.8846C75.7498 82.9901 70.8816 83.0216 70.3266 83.0216ZM70.3266 81.2163C67.1331 81.2163 65.4906 81.6768 65.3586 81.9131C65.4906 82.0938 67.1331 82.5543 70.3266 82.5543C73.4001 82.5543 75.0373 82.1268 75.2736 81.8861C75.0373 81.6423 73.4008 81.2163 70.3266 81.2163ZM75.2946 81.9123H75.3006H75.2946Z" fill="#564F7D"/>
<path d="M60.2305 92.0488V93.8631C60.2305 94.3618 62.5555 94.7661 65.4235 94.7661C68.2915 94.7661 70.6165 94.3618 70.6165 93.8631V92.0488H60.2305Z" fill="#00D395"/>
<path d="M65.4232 95.0002C64.8682 95.0002 60 94.9679 60 93.8632V92.0489C60 91.9192 60.1027 91.8149 60.2302 91.8149H70.617C70.7445 91.8149 70.8472 91.9199 70.8472 92.0489V93.8632C70.8465 94.9679 65.979 95.0002 65.4232 95.0002ZM60.4605 92.2829V93.8632C60.588 94.0709 62.2305 94.5314 65.4232 94.5314C68.616 94.5314 70.2585 94.0709 70.3912 93.8347L70.3867 92.2822H60.4605V92.2829Z" fill="#564F7D"/>
<path d="M65.4235 91.1494C64.0462 91.1494 62.7253 91.2445 61.7515 91.4139C60.7776 91.5832 60.2305 91.8129 60.2305 92.0524C60.2305 92.2919 60.7776 92.5216 61.7515 92.6909C62.7253 92.8603 64.0462 92.9554 65.4235 92.9554C66.8007 92.9554 68.1216 92.8603 69.0955 92.6909C70.0694 92.5216 70.6165 92.2919 70.6165 92.0524C70.6165 91.8129 70.0694 91.5832 69.0955 91.4139C68.1216 91.2445 66.8007 91.1494 65.4235 91.1494Z" fill="#FFD683"/>
<path d="M65.4232 93.1895C64.8682 93.1895 60 93.1573 60 92.0525C60 90.9478 64.8682 90.9155 65.4232 90.9155C65.9782 90.9155 70.8465 90.9478 70.8465 92.0525C70.8465 93.158 65.979 93.1895 65.4232 93.1895ZM65.4232 91.3835C62.2297 91.3835 60.588 91.844 60.4552 92.0795C60.588 92.2603 62.2297 92.7208 65.4232 92.7208C68.4967 92.7208 70.1333 92.2933 70.3695 92.0525C70.134 91.811 68.4975 91.3835 65.4232 91.3835ZM70.392 92.0795H70.398H70.392Z" fill="#564F7D"/>
<path d="M60.2305 89.0493V90.8636C60.2305 91.3623 62.5555 91.7666 65.4235 91.7666C68.2915 91.7666 70.6165 91.3623 70.6165 90.8636V89.0493H60.2305Z" fill="#00D395"/>
<path d="M65.4232 92.0007C64.8682 92.0007 60 91.9684 60 90.8637V89.0494C60 88.9197 60.1027 88.8154 60.2302 88.8154H70.617C70.7445 88.8154 70.8472 88.9204 70.8472 89.0494V90.8637C70.8465 91.9684 65.979 92.0007 65.4232 92.0007ZM60.4605 89.2834V90.8637C60.588 91.0714 62.229 91.5319 65.4232 91.5319C68.6175 91.5319 70.2585 91.0714 70.3912 90.8352L70.3867 89.2827H60.4605V89.2834Z" fill="#564F7D"/>
<path d="M65.4235 88.1499C64.0462 88.1499 62.7253 88.245 61.7515 88.4144C60.7776 88.5837 60.2305 88.8134 60.2305 89.0529C60.2305 89.2924 60.7776 89.5221 61.7515 89.6914C62.7253 89.8608 64.0462 89.9559 65.4235 89.9559C66.8007 89.9559 68.1216 89.8608 69.0955 89.6914C70.0694 89.5221 70.6165 89.2924 70.6165 89.0529C70.6165 88.8134 70.0694 88.5837 69.0955 88.4144C68.1216 88.245 66.8007 88.1499 65.4235 88.1499Z" fill="#FFD683"/>
<path d="M65.4232 90.19C64.8682 90.19 60 90.1578 60 89.053C60 87.9475 64.8682 87.916 65.4232 87.916C65.9782 87.916 70.8465 87.9483 70.8465 89.053C70.8465 90.1578 65.979 90.19 65.4232 90.19ZM65.4232 88.384C62.2297 88.384 60.588 88.8445 60.4552 89.08C60.588 89.2608 62.2297 89.7213 65.4232 89.7213C68.4967 89.7213 70.1333 89.2938 70.3695 89.053C70.134 88.8115 68.4975 88.384 65.4232 88.384ZM70.392 89.08H70.398H70.392Z" fill="#564F7D"/>
<path d="M60.2305 86.1895V88.0037C60.2305 88.5025 62.5555 88.9067 65.4235 88.9067C68.2915 88.9067 70.6165 88.5025 70.6165 88.0037V86.1895H60.2305Z" fill="#00D395"/>
<path d="M65.4232 89.1418C64.8682 89.1418 60 89.1095 60 88.0048V86.1905C60 86.0608 60.1027 85.9565 60.2302 85.9565H70.617C70.7445 85.9565 70.8472 86.0615 70.8472 86.1905V88.0048C70.8465 89.1095 65.979 89.1418 65.4232 89.1418ZM60.4605 86.4245V88.0048C60.588 88.2125 62.229 88.673 65.4232 88.673C68.6175 88.673 70.2585 88.2125 70.3912 87.9763L70.3867 86.4238H60.4605V86.4245Z" fill="#564F7D"/>
<path d="M65.4235 85.2905C64.0462 85.2905 62.7253 85.3857 61.7515 85.555C60.7776 85.7244 60.2305 85.954 60.2305 86.1935C60.2305 86.433 60.7776 86.6627 61.7515 86.832C62.7253 87.0014 64.0462 87.0965 65.4235 87.0965C66.8007 87.0965 68.1216 87.0014 69.0955 86.832C70.0694 86.6627 70.6165 86.433 70.6165 86.1935C70.6165 85.954 70.0694 85.7244 69.0955 85.555C68.1216 85.3857 66.8007 85.2905 65.4235 85.2905Z" fill="#FFD683"/>
<path d="M65.4232 87.3311C64.8682 87.3311 60 87.2989 60 86.1941C60 85.0894 64.8682 85.0571 65.4232 85.0571C65.9782 85.0571 70.8465 85.0894 70.8465 86.1941C70.8465 87.2989 65.979 87.3311 65.4232 87.3311ZM65.4232 85.5251C62.2297 85.5251 60.588 85.9856 60.4552 86.2219C60.588 86.4026 62.2297 86.8631 65.4232 86.8631C68.4967 86.8631 70.134 86.4356 70.3703 86.1949C70.134 85.9526 68.4983 85.5251 65.4232 85.5251ZM70.392 86.2211H70.398H70.392Z" fill="#564F7D"/>
</g>
<g filter="url(#filter1_d)">
<path d="M30.5774 41.8189H32.0511C32.0298 40.5227 30.9645 39.6278 29.3452 39.6278C27.7507 39.6278 26.5824 40.5085 26.5895 41.8295C26.5859 42.902 27.3423 43.5163 28.571 43.8111L29.3629 44.0099C30.1548 44.2017 30.5952 44.429 30.5987 44.919C30.5952 45.4517 30.0909 45.8139 29.3097 45.8139C28.5107 45.8139 27.9354 45.4446 27.8857 44.7166H26.3977C26.4368 46.2898 27.5625 47.103 29.3274 47.103C31.103 47.103 32.147 46.2543 32.1506 44.9226C32.147 43.7116 31.2344 43.0689 29.9702 42.7848L29.3168 42.6286C28.6847 42.483 28.1555 42.2486 28.1662 41.7266C28.1662 41.2578 28.5817 40.9134 29.3345 40.9134C30.0696 40.9134 30.5206 41.2472 30.5774 41.8189ZM36.6543 44.6776C36.6578 45.4091 36.1571 45.7926 35.6138 45.7926C35.0421 45.7926 34.6728 45.3913 34.6692 44.7486V41.5455H33.1564V45.0185C33.16 46.2933 33.9057 47.071 35.003 47.071C35.8233 47.071 36.4128 46.6484 36.6578 46.0092H36.7147V47H38.1671V41.5455H36.6543V44.6776ZM39.3771 49.0455H40.8899V46.1264H40.9361C41.1456 46.581 41.6037 47.0888 42.4844 47.0888C43.7273 47.0888 44.6967 46.1051 44.6967 44.2798C44.6967 42.4048 43.6847 41.4744 42.4879 41.4744C41.5753 41.4744 41.1385 42.0178 40.9361 42.4616H40.8686V41.5455H39.3771V49.0455ZM40.858 44.2727C40.858 43.2997 41.2699 42.6783 42.005 42.6783C42.7543 42.6783 43.152 43.3281 43.152 44.2727C43.152 45.2244 42.7472 45.8849 42.005 45.8849C41.277 45.8849 40.858 45.2457 40.858 44.2727ZM45.7053 49.0455H47.218V46.1264H47.2642C47.4737 46.581 47.9318 47.0888 48.8125 47.0888C50.0554 47.0888 51.0249 46.1051 51.0249 44.2798C51.0249 42.4048 50.0128 41.4744 48.8161 41.4744C47.9034 41.4744 47.4666 42.0178 47.2642 42.4616H47.1967V41.5455H45.7053V49.0455ZM47.1861 44.2727C47.1861 43.2997 47.598 42.6783 48.3331 42.6783C49.0824 42.6783 49.4801 43.3281 49.4801 44.2727C49.4801 45.2244 49.0753 45.8849 48.3331 45.8849C47.6051 45.8849 47.1861 45.2457 47.1861 44.2727ZM53.5462 39.7273H52.0334V47H53.5462V39.7273ZM55.6919 49.0348C56.8176 49.0348 57.4178 48.4631 57.7232 47.5895L59.8432 41.5526L58.2417 41.5455L57.1017 45.5511H57.0449L55.9157 41.5455H54.3248L56.2814 47.1562L56.1926 47.3871C55.9796 47.8807 55.6138 47.9162 55.0811 47.7493L54.7402 48.8821C54.9569 48.9709 55.3084 49.0348 55.6919 49.0348ZM64.4872 47.103C65.2933 47.103 65.8153 46.7514 66.0817 46.2436H66.1243V47H67.5589V43.321C67.5589 42.0213 66.4581 41.4744 65.2436 41.4744C63.9368 41.4744 63.0774 42.0994 62.8679 43.0938L64.267 43.2074C64.37 42.8452 64.6932 42.5788 65.2365 42.5788C65.7514 42.5788 66.0462 42.8381 66.0462 43.2855V43.3068C66.0462 43.6584 65.6733 43.7045 64.7251 43.7969C63.6456 43.8963 62.6761 44.2585 62.6761 45.4766C62.6761 46.5561 63.4467 47.103 64.4872 47.103ZM64.9205 46.0589C64.4553 46.0589 64.1214 45.8423 64.1214 45.4268C64.1214 45.0007 64.473 44.7912 65.0057 44.7166C65.3359 44.6705 65.8757 44.5923 66.0568 44.4716V45.0504C66.0568 45.6222 65.5845 46.0589 64.9205 46.0589ZM73.271 43.1009C73.136 42.0959 72.3263 41.4744 70.9485 41.4744C69.5529 41.4744 68.6332 42.1207 68.6367 43.1719C68.6332 43.9886 69.1481 44.5178 70.2134 44.7308L71.158 44.919C71.6339 45.0149 71.8505 45.1889 71.8576 45.4624C71.8505 45.7855 71.4989 46.0163 70.9698 46.0163C70.43 46.0163 70.0714 45.7855 69.979 45.3416L68.4911 45.4197C68.6332 46.4638 69.521 47.1065 70.9663 47.1065C72.3796 47.1065 73.3917 46.3857 73.3952 45.3097C73.3917 44.5213 72.8768 44.049 71.8185 43.8324L70.8313 43.6335C70.3235 43.5234 70.1353 43.3494 70.1388 43.0866C70.1353 42.7599 70.5046 42.5469 70.9734 42.5469C71.4989 42.5469 71.8114 42.8345 71.886 43.1861L73.271 43.1009ZM78.8862 43.1009C78.7512 42.0959 77.9416 41.4744 76.5637 41.4744C75.1681 41.4744 74.2484 42.1207 74.252 43.1719C74.2484 43.9886 74.7633 44.5178 75.8287 44.7308L76.7733 44.919C77.2491 45.0149 77.4657 45.1889 77.4728 45.4624C77.4657 45.7855 77.1142 46.0163 76.585 46.0163C76.0453 46.0163 75.6866 45.7855 75.5943 45.3416L74.1064 45.4197C74.2484 46.4638 75.1362 47.1065 76.5815 47.1065C77.9949 47.1065 79.0069 46.3857 79.0105 45.3097C79.0069 44.5213 78.492 44.049 77.4338 43.8324L76.4466 43.6335C75.9387 43.5234 75.7505 43.3494 75.7541 43.0866C75.7505 42.7599 76.1199 42.5469 76.5886 42.5469C77.1142 42.5469 77.4267 42.8345 77.5012 43.1861L78.8862 43.1009ZM82.4489 47.1065C83.7983 47.1065 84.7074 46.4496 84.9205 45.4375L83.5213 45.3452C83.3686 45.7607 82.978 45.9773 82.4737 45.9773C81.7173 45.9773 81.2379 45.4766 81.2379 44.6634V44.6598H84.9524V44.2443C84.9524 42.3906 83.8303 41.4744 82.3885 41.4744C80.7834 41.4744 79.7429 42.6143 79.7429 44.2976C79.7429 46.027 80.7692 47.1065 82.4489 47.1065ZM81.2379 43.7223C81.2699 43.1009 81.7422 42.6037 82.4134 42.6037C83.0703 42.6037 83.5249 43.0724 83.5284 43.7223H81.2379ZM88.8409 41.5455H87.8146V40.2386H86.3018V41.5455H85.5561V42.6818H86.3018V45.5227C86.2947 46.5916 87.0227 47.1207 88.12 47.0746C88.5107 47.0604 88.7876 46.9822 88.9403 46.9325L88.7024 45.8068C88.6278 45.821 88.468 45.8565 88.326 45.8565C88.0241 45.8565 87.8146 45.7429 87.8146 45.3239V42.6818H88.8409V41.5455ZM94.2866 43.1009C94.1516 42.0959 93.342 41.4744 91.9641 41.4744C90.5685 41.4744 89.6488 42.1207 89.6523 43.1719C89.6488 43.9886 90.1637 44.5178 91.229 44.7308L92.1737 44.919C92.6495 45.0149 92.8661 45.1889 92.8732 45.4624C92.8661 45.7855 92.5146 46.0163 91.9854 46.0163C91.4457 46.0163 91.087 45.7855 90.9947 45.3416L89.5067 45.4197C89.6488 46.4638 90.5366 47.1065 91.9819 47.1065C93.3952 47.1065 94.4073 46.3857 94.4109 45.3097C94.4073 44.5213 93.8924 44.049 92.8342 43.8324L91.8469 43.6335C91.3391 43.5234 91.1509 43.3494 91.1545 43.0866C91.1509 42.7599 91.5202 42.5469 91.989 42.5469C92.5146 42.5469 92.8271 42.8345 92.9016 43.1861L94.2866 43.1009ZM100.579 41.5455H99.5529V40.2386H98.0401V41.5455H97.2944V42.6818H98.0401V45.5227C98.033 46.5916 98.761 47.1207 99.8583 47.0746C100.249 47.0604 100.526 46.9822 100.679 46.9325L100.441 45.8068C100.366 45.821 100.206 45.8565 100.064 45.8565C99.7624 45.8565 99.5529 45.7429 99.5529 45.3239V42.6818H100.579V41.5455ZM103.971 47.1065C105.625 47.1065 106.655 45.9737 106.655 44.294C106.655 42.6037 105.625 41.4744 103.971 41.4744C102.316 41.4744 101.286 42.6037 101.286 44.294C101.286 45.9737 102.316 47.1065 103.971 47.1065ZM103.978 45.9347C103.214 45.9347 102.824 45.2351 102.824 44.2834C102.824 43.3317 103.214 42.6286 103.978 42.6286C104.727 42.6286 105.118 43.3317 105.118 44.2834C105.118 45.2351 104.727 45.9347 103.978 45.9347ZM33.049 54.2734C32.8466 52.5938 31.5753 51.6278 29.892 51.6278C27.9709 51.6278 26.5043 52.9844 26.5043 55.3636C26.5043 57.7358 27.946 59.0994 29.892 59.0994C31.7564 59.0994 32.8821 57.8601 33.049 56.5213L31.4936 56.5142C31.348 57.2919 30.7372 57.7393 29.9169 57.7393C28.8125 57.7393 28.0632 56.919 28.0632 55.3636C28.0632 53.8509 28.8018 52.9879 29.9276 52.9879C30.7692 52.9879 31.3764 53.4744 31.4936 54.2734H33.049ZM36.5877 59.1065C38.2425 59.1065 39.2724 57.9737 39.2724 56.294C39.2724 54.6037 38.2425 53.4744 36.5877 53.4744C34.9329 53.4744 33.9031 54.6037 33.9031 56.294C33.9031 57.9737 34.9329 59.1065 36.5877 59.1065ZM36.5948 57.9347C35.8313 57.9347 35.4407 57.2351 35.4407 56.2834C35.4407 55.3317 35.8313 54.6286 36.5948 54.6286C37.3441 54.6286 37.7347 55.3317 37.7347 56.2834C37.7347 57.2351 37.3441 57.9347 36.5948 57.9347ZM40.256 59H41.7688V55.7259C41.7688 55.1222 42.1523 54.7209 42.6566 54.7209C43.1538 54.7209 43.4876 55.0618 43.4876 55.598V59H44.9542V55.669C44.9542 55.1044 45.2773 54.7209 45.8278 54.7209C46.3107 54.7209 46.6729 55.0227 46.6729 55.63V59H48.1822V55.3317C48.1822 54.1491 47.479 53.4744 46.4634 53.4744C45.6644 53.4744 45.043 53.8828 44.8192 54.5078H44.7624C44.5884 53.8757 44.0309 53.4744 43.2816 53.4744C42.5465 53.4744 41.989 53.8651 41.7617 54.5078H41.6978V53.5455H40.256V59ZM49.3771 61.0455H50.8899V58.1264H50.9361C51.1456 58.581 51.6037 59.0888 52.4844 59.0888C53.7273 59.0888 54.6967 58.1051 54.6967 56.2798C54.6967 54.4048 53.6847 53.4744 52.4879 53.4744C51.5753 53.4744 51.1385 54.0178 50.9361 54.4616H50.8686V53.5455H49.3771V61.0455ZM50.858 56.2727C50.858 55.2997 51.2699 54.6783 52.005 54.6783C52.7543 54.6783 53.152 55.3281 53.152 56.2727C53.152 57.2244 52.7472 57.8849 52.005 57.8849C51.277 57.8849 50.858 57.2457 50.858 56.2727ZM58.1697 59.1065C59.8246 59.1065 60.8544 57.9737 60.8544 56.294C60.8544 54.6037 59.8246 53.4744 58.1697 53.4744C56.5149 53.4744 55.4851 54.6037 55.4851 56.294C55.4851 57.9737 56.5149 59.1065 58.1697 59.1065ZM58.1768 57.9347C57.4134 57.9347 57.0227 57.2351 57.0227 56.2834C57.0227 55.3317 57.4134 54.6286 58.1768 54.6286C58.9261 54.6286 59.3168 55.3317 59.3168 56.2834C59.3168 57.2351 58.9261 57.9347 58.1768 57.9347ZM65.3359 56.6776C65.3395 57.4091 64.8388 57.7926 64.2955 57.7926C63.7237 57.7926 63.3544 57.3913 63.3509 56.7486V53.5455H61.8381V57.0185C61.8416 58.2933 62.5874 59.071 63.6847 59.071C64.505 59.071 65.0945 58.6484 65.3395 58.0092H65.3963V59H66.8487V53.5455H65.3359V56.6776ZM69.5716 55.8466C69.5751 55.1435 69.9941 54.7315 70.6049 54.7315C71.2122 54.7315 71.5779 55.1293 71.5744 55.7969V59H73.0872V55.527C73.0872 54.2557 72.3414 53.4744 71.2051 53.4744C70.3954 53.4744 69.8095 53.8722 69.5645 54.5078H69.5005V53.5455H68.0588V59H69.5716V55.8466ZM76.2894 59.0888C77.1701 59.0888 77.6282 58.581 77.8377 58.1264H77.9016V59H79.3931V51.7273H77.8839V54.4616H77.8377C77.6353 54.0178 77.1985 53.4744 76.2859 53.4744C75.0891 53.4744 74.0771 54.4048 74.0771 56.2798C74.0771 58.1051 75.0465 59.0888 76.2894 59.0888ZM76.7688 57.8849C76.0266 57.8849 75.6218 57.2244 75.6218 56.2727C75.6218 55.3281 76.0195 54.6783 76.7688 54.6783C77.5039 54.6783 77.9158 55.2997 77.9158 56.2727C77.9158 57.2457 77.4968 57.8849 76.7688 57.8849Z" fill="white"/>
</g>
<path d="M22.3441 15.7461C22.1619 14.2344 21.0178 13.3651 19.5028 13.3651C17.7738 13.3651 16.4538 14.5859 16.4538 16.7273C16.4538 18.8622 17.7514 20.0895 19.5028 20.0895C21.1808 20.0895 22.1939 18.9741 22.3441 17.7692L20.9442 17.7628C20.8132 18.4627 20.2635 18.8654 19.5252 18.8654C18.5312 18.8654 17.8569 18.1271 17.8569 16.7273C17.8569 15.3658 18.5217 14.5891 19.5348 14.5891C20.2923 14.5891 20.8388 15.027 20.9442 15.7461H22.3441ZM29.3514 16.7273C29.3514 14.5859 28.0218 13.3651 26.2864 13.3651C24.5414 13.3651 23.2214 14.5859 23.2214 16.7273C23.2214 18.859 24.5414 20.0895 26.2864 20.0895C28.0218 20.0895 29.3514 18.8686 29.3514 16.7273ZM27.9483 16.7273C27.9483 18.1143 27.29 18.8654 26.2864 18.8654C25.2797 18.8654 24.6245 18.1143 24.6245 16.7273C24.6245 15.3402 25.2797 14.5891 26.2864 14.5891C27.29 14.5891 27.9483 15.3402 27.9483 16.7273ZM30.3765 13.4545V20H31.7188V15.7237H31.7732L33.4671 19.968H34.3811L36.075 15.7397H36.1294V20H37.4717V13.4545H35.765L33.9624 17.8523H33.8857L32.0832 13.4545H30.3765ZM38.6119 20H39.9957V17.8778H41.1591C42.6644 17.8778 43.5401 16.9798 43.5401 15.6726C43.5401 14.3718 42.6804 13.4545 41.1942 13.4545H38.6119V20ZM39.9957 16.7688V14.5859H40.929C41.728 14.5859 42.1147 15.0206 42.1147 15.6726C42.1147 16.3214 41.728 16.7688 40.9354 16.7688H39.9957ZM47.305 16.1871H44.32V17.2674H47.305V16.1871ZM51.3001 13.4545H49.9993L48.3789 14.4805V15.7077L49.8778 14.7681H49.9162V20H51.3001V13.4545ZM55.4221 20.1438C57.0681 20.1438 58.0621 18.891 58.0653 16.7337C58.0684 14.5923 57.0617 13.3651 55.4221 13.3651C53.7794 13.3651 52.7822 14.5891 52.779 16.7337C52.7726 18.8846 53.773 20.1406 55.4221 20.1438ZM55.4221 18.9964C54.6711 18.9964 54.1853 18.2422 54.1885 16.7337C54.1917 15.2475 54.6743 14.4996 55.4221 14.4996C56.1668 14.4996 56.6526 15.2475 56.6526 16.7337C56.6558 18.2422 56.17 18.9964 55.4221 18.9964ZM61.8997 13.4545H60.5989L58.9785 14.4805V15.7077L60.4775 14.7681H60.5158V20H61.8997V13.4545Z" fill="#62CF9E"/>
</g>
<defs>
<filter id="filter0_d" x="0" y="0" width="137" height="167" filterUnits="userSpaceOnUse" color-interpolation-filters="sRGB">
<feFlood flood-opacity="0" result="BackgroundImageFix"/>
<feColorMatrix in="SourceAlpha" type="matrix" values="0 0 0 0 0 0 0 0 0 0 0 0 0 0 0 0 0 0 127 0"/>
<feOffset dy="4"/>
<feGaussianBlur stdDeviation="2"/>
<feColorMatrix type="matrix" values="0 0 0 0 0 0 0 0 0 0 0 0 0 0 0 0 0 0 0.25 0"/>
<feBlend mode="normal" in2="BackgroundImageFix" result="effect1_dropShadow"/>
<feBlend mode="normal" in="SourceGraphic" in2="effect1_dropShadow" result="shape"/>
</filter>
<filter id="filter1_d" x="22.3975" y="39.6279" width="88.2575" height="29.4176" filterUnits="userSpaceOnUse" color-interpolation-filters="sRGB">
<feFlood flood-opacity="0" result="BackgroundImageFix"/>
<feColorMatrix in="SourceAlpha" type="matrix" values="0 0 0 0 0 0 0 0 0 0 0 0 0 0 0 0 0 0 127 0"/>
<feOffset dy="4"/>
<feGaussianBlur stdDeviation="2"/>
<feColorMatrix type="matrix" values="0 0 0 0 0 0 0 0 0 0 0 0 0 0 0 0 0 0 0.25 0"/>
<feBlend mode="normal" in2="BackgroundImageFix" result="effect1_dropShadow"/>
<feBlend mode="normal" in="SourceGraphic" in2="effect1_dropShadow" result="shape"/>
</filter>
</defs>
</svg>
