<svg width="137" height="167" viewBox="0 0 137 167" fill="none" xmlns="http://www.w3.org/2000/svg">
<g filter="url(#filter0_d)">
<rect x="4" width="129" height="159" rx="5" fill="#1F1F1F"/>
<rect x="71.5" y="135.5" width="56.5605" height="15.4164" rx="7.70819" fill="#1F1F1F" stroke="#8DFBC9"/>
<path d="M81.3835 144.977H84.1761V146H85.3523V144.977H86.0739V143.991H85.3523V140.182H83.8125L81.3835 144.009V144.977ZM84.1989 143.991H82.6222V143.946L84.1534 141.523H84.1989V143.991ZM91.1747 146.128C92.6378 146.128 93.5213 145.014 93.5241 143.097C93.527 141.193 92.6321 140.102 91.1747 140.102C89.7145 140.102 88.8281 141.19 88.8253 143.097C88.8196 145.009 89.7088 146.125 91.1747 146.128ZM91.1747 145.108C90.5071 145.108 90.0753 144.438 90.0781 143.097C90.081 141.776 90.5099 141.111 91.1747 141.111C91.8366 141.111 92.2685 141.776 92.2685 143.097C92.2713 144.438 91.8395 145.108 91.1747 145.108ZM98.6825 146.128C100.146 146.128 101.029 145.014 101.032 143.097C101.035 141.193 100.14 140.102 98.6825 140.102C97.2223 140.102 96.3359 141.19 96.3331 143.097C96.3274 145.009 97.2166 146.125 98.6825 146.128ZM98.6825 145.108C98.0149 145.108 97.5831 144.438 97.5859 143.097C97.5888 141.776 98.0178 141.111 98.6825 141.111C99.3445 141.111 99.7763 141.776 99.7763 143.097C99.7791 144.438 99.3473 145.108 98.6825 145.108ZM108.948 140.182H107.553L109.34 143.091L107.519 146H108.928L110.121 144.014H110.167L111.36 146H112.775L110.96 143.091L112.735 140.182H111.346L110.167 142.165H110.121L108.948 140.182ZM115.513 146H116.744V144.114H117.778C119.116 144.114 119.894 143.315 119.894 142.153C119.894 140.997 119.13 140.182 117.809 140.182H115.513V146ZM116.744 143.128V141.188H117.573C118.283 141.188 118.627 141.574 118.627 142.153C118.627 142.73 118.283 143.128 117.579 143.128H116.744Z" fill="#8DFBC9"/>
<rect width="108.152" height="95.8202" rx="8" transform="matrix(1 0 0 -1 13.1211 126.944)" fill="#434343"/>
<g opacity="0.3">
<path d="M67.75 58C60.3902 58 53.3319 60.9237 48.1278 66.1278C42.9237 71.3319 40 78.3902 40 85.75C40 93.1098 42.9237 100.168 48.1278 105.372C53.3319 110.576 60.3902 113.5 67.75 113.5C75.1098 113.5 82.1681 110.576 87.3722 105.372C92.5763 100.168 95.5 93.1098 95.5 85.75C95.5 78.3902 92.5763 71.3319 87.3722 66.1278C82.1681 60.9237 75.1098 58 67.75 58Z" fill="#FFD683"/>
<path d="M87.75 56C87.5511 56 87.3603 56.079 87.2197 56.2197C87.079 56.3603 87 56.5511 87 56.75C87 56.9489 87.079 57.1397 87.2197 57.2803C87.3603 57.421 87.5511 57.5 87.75 57.5C87.9489 57.5 88.1397 57.421 88.2803 57.2803C88.421 57.1397 88.5 56.9489 88.5 56.75C88.5 56.5511 88.421 56.3603 88.2803 56.2197C88.1397 56.079 87.9489 56 87.75 56Z" fill="#00D395"/>
<path d="M92.25 55.25C91.4544 55.25 90.6913 55.5661 90.1287 56.1287C89.5661 56.6913 89.25 57.4544 89.25 58.25C89.25 59.0456 89.5661 59.8087 90.1287 60.3713C90.6913 60.9339 91.4544 61.25 92.25 61.25C93.0456 61.25 93.8087 60.9339 94.3713 60.3713C94.9339 59.8087 95.25 59.0456 95.25 58.25C95.25 57.4544 94.9339 56.6913 94.3713 56.1287C93.8087 55.5661 93.0456 55.25 92.25 55.25V55.25Z" fill="#00D395"/>
<path d="M95.25 63.5C94.8522 63.5 94.4706 63.658 94.1893 63.9393C93.908 64.2206 93.75 64.6022 93.75 65C93.75 65.3978 93.908 65.7794 94.1893 66.0607C94.4706 66.342 94.8522 66.5 95.25 66.5C95.6478 66.5 96.0294 66.342 96.3107 66.0607C96.592 65.7794 96.75 65.3978 96.75 65C96.75 64.6022 96.592 64.2206 96.3107 63.9393C96.0294 63.658 95.6478 63.5 95.25 63.5Z" fill="#8889B9"/>
<path d="M90.75 102.5C90.3522 102.5 89.9706 102.658 89.6893 102.939C89.408 103.221 89.25 103.602 89.25 104C89.25 104.398 89.408 104.779 89.6893 105.061C89.9706 105.342 90.3522 105.5 90.75 105.5C91.1478 105.5 91.5294 105.342 91.8107 105.061C92.092 104.779 92.25 104.398 92.25 104C92.25 103.602 92.092 103.221 91.8107 102.939C91.5294 102.658 91.1478 102.5 90.75 102.5ZM41.25 91.25C40.4544 91.25 39.6913 91.5661 39.1287 92.1287C38.5661 92.6913 38.25 93.4544 38.25 94.25C38.25 95.0456 38.5661 95.8087 39.1287 96.3713C39.6913 96.9339 40.4544 97.25 41.25 97.25C42.0456 97.25 42.8087 96.9339 43.3713 96.3713C43.9339 95.8087 44.25 95.0456 44.25 94.25C44.25 93.4544 43.9339 92.6913 43.3713 92.1287C42.8087 91.5661 42.0456 91.25 41.25 91.25Z" fill="#FBCD59"/>
<path d="M48.75 110.75C48.3522 110.75 47.9706 110.908 47.6893 111.189C47.408 111.471 47.25 111.852 47.25 112.25C47.25 112.648 47.408 113.029 47.6893 113.311C47.9706 113.592 48.3522 113.75 48.75 113.75C49.1478 113.75 49.5294 113.592 49.8107 113.311C50.092 113.029 50.25 112.648 50.25 112.25C50.25 111.852 50.092 111.471 49.8107 111.189C49.5294 110.908 49.1478 110.75 48.75 110.75Z" fill="#8889B9"/>
<path d="M43.875 83.75C43.3777 83.75 42.9008 83.9475 42.5492 84.2992C42.1975 84.6508 42 85.1277 42 85.625C42 86.1223 42.1975 86.5992 42.5492 86.9508C42.9008 87.3025 43.3777 87.5 43.875 87.5C44.3723 87.5 44.8492 87.3025 45.2008 86.9508C45.5525 86.5992 45.75 86.1223 45.75 85.625C45.75 85.1277 45.5525 84.6508 45.2008 84.2992C44.8492 83.9475 44.3723 83.75 43.875 83.75ZM89.625 71C89.3266 71 89.0405 71.1185 88.8295 71.3295C88.6185 71.5405 88.5 71.8266 88.5 72.125C88.5 72.4234 88.6185 72.7095 88.8295 72.9205C89.0405 73.1315 89.3266 73.25 89.625 73.25C89.9234 73.25 90.2095 73.1315 90.4205 72.9205C90.6315 72.7095 90.75 72.4234 90.75 72.125C90.75 71.8266 90.6315 71.5405 90.4205 71.3295C90.2095 71.1185 89.9234 71 89.625 71Z" fill="white"/>
<path d="M56.2494 101.225C53.2307 101.225 50.7744 98.7694 50.7744 95.7499V73.2499C50.7744 70.2312 53.2299 67.7749 56.2494 67.7749H78.7494C81.7682 67.7749 84.2244 70.2304 84.2244 73.2499V95.7499C84.2244 98.7687 81.7689 101.225 78.7494 101.225H56.2494Z" fill="#8889B9"/>
<path d="M78.75 68.3C81.4792 68.3 83.7 70.5208 83.7 73.25V95.75C83.7 98.4792 81.4792 100.7 78.75 100.7H56.25C53.5208 100.7 51.3 98.4792 51.3 95.75V73.25C51.3 70.5208 53.5208 68.3 56.25 68.3H78.75ZM78.75 67.25H56.25C52.95 67.25 50.25 69.95 50.25 73.25V95.75C50.25 99.05 52.95 101.75 56.25 101.75H78.75C82.05 101.75 84.75 99.05 84.75 95.75V73.25C84.75 69.95 82.05 67.25 78.75 67.25Z" fill="#564F7D"/>
<path d="M56.2494 101.225C53.2307 101.225 50.7744 98.7694 50.7744 95.7499V73.2499C50.7744 70.2312 53.2299 67.7749 56.2494 67.7749H78.7494C81.7682 67.7749 84.2244 70.2304 84.2244 73.2499V95.7499C84.2244 98.7687 81.7689 101.225 78.7494 101.225H56.2494Z" fill="#8889B9"/>
<path d="M78.75 68.3C81.4792 68.3 83.7 70.5208 83.7 73.25V95.75C83.7 98.4792 81.4792 100.7 78.75 100.7H56.25C53.5208 100.7 51.3 98.4792 51.3 95.75V73.25C51.3 70.5208 53.5208 68.3 56.25 68.3H78.75ZM78.75 67.25H56.25C52.95 67.25 50.25 69.95 50.25 73.25V95.75C50.25 99.05 52.95 101.75 56.25 101.75H78.75C82.05 101.75 84.75 99.05 84.75 95.75V73.25C84.75 69.95 82.05 67.25 78.75 67.25Z" fill="#564F7D"/>
<path d="M81.375 82.9063V84.2188V95C81.375 96.8563 79.8563 98.375 78 98.375H57C55.1438 98.375 53.625 96.8563 53.625 95V74C53.625 72.1438 55.1438 70.625 57 70.625H76.0313H78C79.8563 70.625 81.375 72.1438 81.375 74V76.5313V78.0313V78.7813V79.625V81.7813V82.9063Z" fill="#FDFCEE"/>
<path d="M81.375 82.5312C81.168 82.5312 81 82.3632 81 82.1562V79.25C81 79.043 81.168 78.875 81.375 78.875C81.582 78.875 81.75 79.043 81.75 79.25V82.1562C81.75 82.3632 81.582 82.5312 81.375 82.5312Z" fill="#564F7D"/>
<path d="M81.375 77.375C81.168 77.375 81 77.207 81 77V75.5C81 75.293 81.168 75.125 81.375 75.125C81.582 75.125 81.75 75.293 81.75 75.5V77C81.75 77.207 81.582 77.375 81.375 77.375Z" fill="#564F7D"/>
<path d="M78 98.75H57C54.9322 98.75 53.25 97.0677 53.25 95V74C53.25 71.9322 54.9322 70.25 57 70.25H76.0312C76.2382 70.25 76.4062 70.418 76.4062 70.625C76.4062 70.832 76.2382 71 76.0312 71H57C55.3455 71 54 72.3455 54 74V95C54 96.6545 55.3455 98 57 98H78C79.6545 98 81 96.6545 81 95V84.2187C81 84.0117 81.168 83.8437 81.375 83.8437C81.582 83.8437 81.75 84.0117 81.75 84.2187V95C81.75 97.0677 80.0677 98.75 78 98.75Z" fill="#564F7D"/>
</g>
<g filter="url(#filter1_d)">
<path d="M33.049 42.2734C32.8466 40.5938 31.5753 39.6278 29.892 39.6278C27.9709 39.6278 26.5043 40.9844 26.5043 43.3636C26.5043 45.7358 27.946 47.0994 29.892 47.0994C31.7564 47.0994 32.8821 45.8601 33.049 44.5213L31.4936 44.5142C31.348 45.2919 30.7372 45.7393 29.9169 45.7393C28.8125 45.7393 28.0632 44.919 28.0632 43.3636C28.0632 41.8509 28.8018 40.9879 29.9276 40.9879C30.7692 40.9879 31.3764 41.4744 31.4936 42.2734H33.049ZM34.1232 47H35.636V43.9141C35.636 43.2429 36.1261 42.7812 36.7937 42.7812C37.0032 42.7812 37.2908 42.8168 37.4329 42.8629V41.5206C37.2979 41.4886 37.1097 41.4673 36.957 41.4673C36.3462 41.4673 35.8455 41.8224 35.6467 42.4972H35.5898V41.5455H34.1232V47ZM40.4469 47.1065C41.7963 47.1065 42.7054 46.4496 42.9185 45.4375L41.5194 45.3452C41.3667 45.7607 40.976 45.9773 40.4718 45.9773C39.7154 45.9773 39.236 45.4766 39.236 44.6634V44.6598H42.9505V44.2443C42.9505 42.3906 41.8283 41.4744 40.3865 41.4744C38.7814 41.4744 37.7409 42.6143 37.7409 44.2976C37.7409 46.027 38.7672 47.1065 40.4469 47.1065ZM39.236 43.7223C39.2679 43.1009 39.7402 42.6037 40.4114 42.6037C41.0684 42.6037 41.5229 43.0724 41.5265 43.7223H39.236ZM45.4931 47.103C46.2992 47.103 46.8212 46.7514 47.0875 46.2436H47.1301V47H48.5648V43.321C48.5648 42.0213 47.464 41.4744 46.2495 41.4744C44.9426 41.4744 44.0833 42.0994 43.8738 43.0938L45.2729 43.2074C45.3759 42.8452 45.699 42.5788 46.2424 42.5788C46.7573 42.5788 47.052 42.8381 47.052 43.2855V43.3068C47.052 43.6584 46.6792 43.7045 45.731 43.7969C44.6515 43.8963 43.682 44.2585 43.682 45.4766C43.682 46.5561 44.4526 47.103 45.4931 47.103ZM45.9263 46.0589C45.4611 46.0589 45.1273 45.8423 45.1273 45.4268C45.1273 45.0007 45.4789 44.7912 46.0115 44.7166C46.3418 44.6705 46.8816 44.5923 47.0627 44.4716V45.0504C47.0627 45.6222 46.5904 46.0589 45.9263 46.0589ZM52.6397 41.5455H51.6135V40.2386H50.1007V41.5455H49.3549V42.6818H50.1007V45.5227C50.0936 46.5916 50.8216 47.1207 51.9189 47.0746C52.3095 47.0604 52.5865 46.9822 52.7392 46.9325L52.5012 45.8068C52.4267 45.821 52.2669 45.8565 52.1248 45.8565C51.823 45.8565 51.6135 45.7429 51.6135 45.3239V42.6818H52.6397V41.5455ZM56.0524 47.1065C57.4018 47.1065 58.3109 46.4496 58.524 45.4375L57.1248 45.3452C56.9721 45.7607 56.5815 45.9773 56.0772 45.9773C55.3208 45.9773 54.8414 45.4766 54.8414 44.6634V44.6598H58.5559V44.2443C58.5559 42.3906 57.4338 41.4744 55.992 41.4744C54.3869 41.4744 53.3464 42.6143 53.3464 44.2976C53.3464 46.027 54.3727 47.1065 56.0524 47.1065ZM54.8414 43.7223C54.8734 43.1009 55.3457 42.6037 56.0169 42.6037C56.6738 42.6037 57.1284 43.0724 57.1319 43.7223H54.8414ZM63.413 47.103C64.2191 47.103 64.7411 46.7514 65.0075 46.2436H65.0501V47H66.4847V43.321C66.4847 42.0213 65.3839 41.4744 64.1694 41.4744C62.8626 41.4744 62.0032 42.0994 61.7937 43.0938L63.1928 43.2074C63.2958 42.8452 63.619 42.5788 64.1623 42.5788C64.6772 42.5788 64.9719 42.8381 64.9719 43.2855V43.3068C64.9719 43.6584 64.5991 43.7045 63.6509 43.7969C62.5714 43.8963 61.6019 44.2585 61.6019 45.4766C61.6019 46.5561 62.3725 47.103 63.413 47.103ZM63.8462 46.0589C63.381 46.0589 63.0472 45.8423 63.0472 45.4268C63.0472 45.0007 63.3988 44.7912 63.9315 44.7166C64.2617 44.6705 64.8015 44.5923 64.9826 44.4716V45.0504C64.9826 45.6222 64.5103 46.0589 63.8462 46.0589ZM70.0012 47H71.5389V44.642H72.8315C74.5041 44.642 75.4771 43.6442 75.4771 42.1918C75.4771 40.7464 74.5218 39.7273 72.8706 39.7273H70.0012V47ZM71.5389 43.4098V40.9844H72.5758C73.4636 40.9844 73.8933 41.4673 73.8933 42.1918C73.8933 42.9126 73.4636 43.4098 72.5829 43.4098H71.5389ZM77.8564 47.103C78.6625 47.103 79.1845 46.7514 79.4508 46.2436H79.4934V47H80.9281V43.321C80.9281 42.0213 79.8272 41.4744 78.6127 41.4744C77.3059 41.4744 76.4466 42.0994 76.237 43.0938L77.6362 43.2074C77.7392 42.8452 78.0623 42.5788 78.6056 42.5788C79.1206 42.5788 79.4153 42.8381 79.4153 43.2855V43.3068C79.4153 43.6584 79.0424 43.7045 78.0943 43.7969C77.0147 43.8963 76.0453 44.2585 76.0453 45.4766C76.0453 46.5561 76.8159 47.103 77.8564 47.103ZM78.2896 46.0589C77.8244 46.0589 77.4906 45.8423 77.4906 45.4268C77.4906 45.0007 77.8422 44.7912 78.3748 44.7166C78.7051 44.6705 79.2449 44.5923 79.426 44.4716V45.0504C79.426 45.6222 78.9537 46.0589 78.2896 46.0589ZM86.6401 43.1009C86.5051 42.0959 85.6955 41.4744 84.3176 41.4744C82.9221 41.4744 82.0023 42.1207 82.0059 43.1719C82.0023 43.9886 82.5172 44.5178 83.5826 44.7308L84.5272 44.919C85.003 45.0149 85.2196 45.1889 85.2267 45.4624C85.2196 45.7855 84.8681 46.0163 84.339 46.0163C83.7992 46.0163 83.4405 45.7855 83.3482 45.3416L81.8603 45.4197C82.0023 46.4638 82.8901 47.1065 84.3354 47.1065C85.7488 47.1065 86.7608 46.3857 86.7644 45.3097C86.7608 44.5213 86.2459 44.049 85.1877 43.8324L84.2005 43.6335C83.6926 43.5234 83.5044 43.3494 83.508 43.0866C83.5044 42.7599 83.8738 42.5469 84.3425 42.5469C84.8681 42.5469 85.1806 42.8345 85.2551 43.1861L86.6401 43.1009ZM92.2553 43.1009C92.1204 42.0959 91.3107 41.4744 89.9329 41.4744C88.5373 41.4744 87.6175 42.1207 87.6211 43.1719C87.6175 43.9886 88.1325 44.5178 89.1978 44.7308L90.1424 44.919C90.6183 45.0149 90.8349 45.1889 90.842 45.4624C90.8349 45.7855 90.4833 46.0163 89.9542 46.0163C89.4144 46.0163 89.0558 45.7855 88.9634 45.3416L87.4755 45.4197C87.6175 46.4638 88.5053 47.1065 89.9506 47.1065C91.364 47.1065 92.3761 46.3857 92.3796 45.3097C92.3761 44.5213 91.8612 44.049 90.8029 43.8324L89.8157 43.6335C89.3079 43.5234 89.1197 43.3494 89.1232 43.0866C89.1197 42.7599 89.489 42.5469 89.9577 42.5469C90.4833 42.5469 90.7958 42.8345 90.8704 43.1861L92.2553 43.1009ZM93.3322 49.0455H94.845V46.1264H94.8912C95.1007 46.581 95.5588 47.0888 96.4395 47.0888C97.6824 47.0888 98.6518 46.1051 98.6518 44.2798C98.6518 42.4048 97.6397 41.4744 96.443 41.4744C95.5304 41.4744 95.0936 42.0178 94.8912 42.4616H94.8237V41.5455H93.3322V49.0455ZM94.813 44.2727C94.813 43.2997 95.225 42.6783 95.96 42.6783C96.7093 42.6783 97.1071 43.3281 97.1071 44.2727C97.1071 45.2244 96.7022 45.8849 95.96 45.8849C95.2321 45.8849 94.813 45.2457 94.813 44.2727ZM102.125 47.1065C103.78 47.1065 104.809 45.9737 104.809 44.294C104.809 42.6037 103.78 41.4744 102.125 41.4744C100.47 41.4744 99.4402 42.6037 99.4402 44.294C99.4402 45.9737 100.47 47.1065 102.125 47.1065ZM102.132 45.9347C101.368 45.9347 100.978 45.2351 100.978 44.2834C100.978 43.3317 101.368 42.6286 102.132 42.6286C102.881 42.6286 103.272 43.3317 103.272 44.2834C103.272 45.2351 102.881 45.9347 102.132 45.9347ZM105.793 47H107.306V43.9141C107.306 43.2429 107.796 42.7812 108.464 42.7812C108.673 42.7812 108.961 42.8168 109.103 42.8629V41.5206C108.968 41.4886 108.78 41.4673 108.627 41.4673C108.016 41.4673 107.515 41.8224 107.317 42.4972H107.26V41.5455H105.793V47ZM113.06 41.5455H112.033V40.2386H110.521V41.5455H109.775V42.6818H110.521V45.5227C110.513 46.5916 111.241 47.1207 112.339 47.0746C112.729 47.0604 113.006 46.9822 113.159 46.9325L112.921 45.8068C112.847 45.821 112.687 45.8565 112.545 45.8565C112.243 45.8565 112.033 45.7429 112.033 45.3239V42.6818H113.06V41.5455ZM26.6037 59H28.1165V53.5455H26.6037V59ZM27.3636 52.8423C27.8146 52.8423 28.1839 52.4979 28.1839 52.0753C28.1839 51.6562 27.8146 51.3118 27.3636 51.3118C26.9162 51.3118 26.5469 51.6562 26.5469 52.0753C26.5469 52.4979 26.9162 52.8423 27.3636 52.8423ZM30.8411 55.8466C30.8446 55.1435 31.2637 54.7315 31.8745 54.7315C32.4817 54.7315 32.8475 55.1293 32.8439 55.7969V59H34.3567V55.527C34.3567 54.2557 33.611 53.4744 32.4746 53.4744C31.665 53.4744 31.079 53.8722 30.834 54.5078H30.7701V53.5455H29.3283V59H30.8411V55.8466ZM40.47 59C42.6859 59 44.0282 57.6293 44.0282 55.3565C44.0282 53.0909 42.6859 51.7273 40.4913 51.7273H37.8919V59H40.47ZM39.4295 57.6825V53.0447H40.4096C41.7733 53.0447 42.4941 53.7408 42.4941 55.3565C42.4941 56.9794 41.7733 57.6825 40.4061 57.6825H39.4295ZM47.6246 59.1065C48.9741 59.1065 49.8832 58.4496 50.0962 57.4375L48.6971 57.3452C48.5444 57.7607 48.1538 57.9773 47.6495 57.9773C46.8931 57.9773 46.4137 57.4766 46.4137 56.6634V56.6598H50.1282V56.2443C50.1282 54.3906 49.006 53.4744 47.5643 53.4744C45.9592 53.4744 44.9187 54.6143 44.9187 56.2976C44.9187 58.027 45.945 59.1065 47.6246 59.1065ZM46.4137 55.7223C46.4457 55.1009 46.918 54.6037 47.5891 54.6037C48.2461 54.6037 48.7006 55.0724 48.7042 55.7223H46.4137ZM53.5799 59.1065C55.0323 59.1065 55.945 58.2543 56.016 57.0007H54.5884C54.4996 57.5831 54.1161 57.9098 53.5977 57.9098C52.891 57.9098 52.4329 57.3168 52.4329 56.2727C52.4329 55.2429 52.8945 54.6534 53.5977 54.6534C54.1516 54.6534 54.5067 55.0192 54.5884 55.5625H56.016C55.9521 54.3018 54.9968 53.4744 53.5728 53.4744C51.918 53.4744 50.8952 54.6214 50.8952 56.294C50.8952 57.9524 51.9002 59.1065 53.5799 59.1065ZM59.4703 59.1065C60.8198 59.1065 61.7289 58.4496 61.9419 57.4375L60.5428 57.3452C60.3901 57.7607 59.9995 57.9773 59.4952 57.9773C58.7388 57.9773 58.2594 57.4766 58.2594 56.6634V56.6598H61.9739V56.2443C61.9739 54.3906 60.8517 53.4744 59.41 53.4744C57.8049 53.4744 56.7644 54.6143 56.7644 56.2976C56.7644 58.027 57.7907 59.1065 59.4703 59.1065ZM58.2594 55.7223C58.2914 55.1009 58.7637 54.6037 59.4348 54.6037C60.0918 54.6037 60.5463 55.0724 60.5499 55.7223H58.2594ZM64.4739 55.8466C64.4775 55.1435 64.8965 54.7315 65.5073 54.7315C66.1145 54.7315 66.4803 55.1293 66.4767 55.7969V59H67.9895V55.527C67.9895 54.2557 67.2438 53.4744 66.1074 53.4744C65.2978 53.4744 64.7118 53.8722 64.4668 54.5078H64.4029V53.5455H62.9611V59H64.4739V55.8466ZM72.0831 53.5455H71.0568V52.2386H69.544V53.5455H68.7983V54.6818H69.544V57.5227C69.5369 58.5916 70.2649 59.1207 71.3622 59.0746C71.7528 59.0604 72.0298 58.9822 72.1825 58.9325L71.9446 57.8068C71.87 57.821 71.7102 57.8565 71.5682 57.8565C71.2663 57.8565 71.0568 57.7429 71.0568 57.3239V54.6818H72.0831V53.5455ZM73.0685 59H74.5813V55.9141C74.5813 55.2429 75.0714 54.7812 75.739 54.7812C75.9485 54.7812 76.2362 54.8168 76.3782 54.8629V53.5206C76.2433 53.4886 76.055 53.4673 75.9023 53.4673C75.2915 53.4673 74.7908 53.8224 74.592 54.4972H74.5352V53.5455H73.0685V59ZM78.5595 59.103C79.3656 59.103 79.8876 58.7514 80.1539 58.2436H80.1966V59H81.6312V55.321C81.6312 54.0213 80.5304 53.4744 79.3159 53.4744C78.0091 53.4744 77.1497 54.0994 76.9402 55.0938L78.3393 55.2074C78.4423 54.8452 78.7654 54.5788 79.3088 54.5788C79.8237 54.5788 80.1184 54.8381 80.1184 55.2855V55.3068C80.1184 55.6584 79.7456 55.7045 78.7974 55.7969C77.7179 55.8963 76.7484 56.2585 76.7484 57.4766C76.7484 58.5561 77.519 59.103 78.5595 59.103ZM78.9927 58.0589C78.5275 58.0589 78.1937 57.8423 78.1937 57.4268C78.1937 57.0007 78.5453 56.7912 79.0779 56.7166C79.4082 56.6705 79.948 56.5923 80.1291 56.4716V57.0504C80.1291 57.6222 79.6568 58.0589 78.9927 58.0589ZM84.3176 51.7273H82.8049V59H84.3176V51.7273ZM87.0849 59.103C87.891 59.103 88.413 58.7514 88.6793 58.2436H88.7219V59H90.1566V55.321C90.1566 54.0213 89.0558 53.4744 87.8413 53.4744C86.5344 53.4744 85.6751 54.0994 85.4656 55.0938L86.8647 55.2074C86.9677 54.8452 87.2908 54.5788 87.8342 54.5788C88.3491 54.5788 88.6438 54.8381 88.6438 55.2855V55.3068C88.6438 55.6584 88.271 55.7045 87.3228 55.7969C86.2433 55.8963 85.2738 56.2585 85.2738 57.4766C85.2738 58.5561 86.0444 59.103 87.0849 59.103ZM87.5181 58.0589C87.0529 58.0589 86.7191 57.8423 86.7191 57.4268C86.7191 57.0007 87.0707 56.7912 87.6033 56.7166C87.9336 56.6705 88.4734 56.5923 88.6545 56.4716V57.0504C88.6545 57.6222 88.1822 58.0589 87.5181 58.0589ZM92.843 55.8466C92.8466 55.1435 93.2656 54.7315 93.8764 54.7315C94.4837 54.7315 94.8494 55.1293 94.8459 55.7969V59H96.3587V55.527C96.3587 54.2557 95.6129 53.4744 94.4766 53.4744C93.6669 53.4744 93.081 53.8722 92.8359 54.5078H92.772V53.5455H91.3303V59H92.843V55.8466ZM99.5609 59.0888C100.442 59.0888 100.9 58.581 101.109 58.1264H101.173V59H102.665V51.7273H101.155V54.4616H101.109C100.907 54.0178 100.47 53.4744 99.5574 53.4744C98.3606 53.4744 97.3485 54.4048 97.3485 56.2798C97.3485 58.1051 98.318 59.0888 99.5609 59.0888ZM100.04 57.8849C99.2981 57.8849 98.8933 57.2244 98.8933 56.2727C98.8933 55.3281 99.291 54.6783 100.04 54.6783C100.775 54.6783 101.187 55.2997 101.187 56.2727C101.187 57.2457 100.768 57.8849 100.04 57.8849Z" fill="white"/>
</g>
<path d="M16.5689 13.4545V20H17.9112V15.7237H17.9656L19.6594 19.968H20.5735L22.2674 15.7397H22.3217V20H23.6641V13.4545H21.9574L20.1548 17.8523H20.0781L18.2756 13.4545H16.5689ZM25.9324 20L26.4182 18.5075H28.7801L29.2659 20H30.7488L28.4925 13.4545H26.7091L24.4495 20H25.9324ZM26.7698 17.4272L27.5752 14.9503H27.6263L28.4317 17.4272H26.7698ZM37.0115 13.4545H35.634V17.571H35.5764L32.7512 13.4545H31.5367V20H32.9205V15.8803H32.9685L35.8161 20H37.0115V13.4545ZM39.283 20L39.7688 18.5075H42.1307L42.6165 20H44.0994L41.843 13.4545H40.0597L37.8001 20H39.283ZM40.1204 17.4272L40.9258 14.9503H40.9769L41.7823 17.4272H40.1204ZM47.9203 16.1871H44.9352V17.2674H47.9203V16.1871ZM51.9153 13.4545H50.6145L48.9941 14.4805V15.7077L50.4931 14.7681H50.5314V20H51.9153V13.4545ZM56.0374 20.1438C57.6833 20.1438 58.6773 18.891 58.6805 16.7337C58.6837 14.5923 57.6769 13.3651 56.0374 13.3651C54.3946 13.3651 53.3975 14.5891 53.3943 16.7337C53.3879 18.8846 54.3882 20.1406 56.0374 20.1438ZM56.0374 18.9964C55.2863 18.9964 54.8005 18.2422 54.8037 16.7337C54.8069 15.2475 55.2895 14.4996 56.0374 14.4996C56.782 14.4996 57.2678 15.2475 57.2678 16.7337C57.271 18.2422 56.7852 18.9964 56.0374 18.9964ZM62.5149 13.4545H61.2141L59.5938 14.4805V15.7077L61.0927 14.7681H61.131V20H62.5149V13.4545Z" fill="#FFD683"/>
</g>
<g opacity="0.3">
<path d="M70.7656 77.1562V76.2969H64.2344V77.1562H59.4844V93.3125L63.3438 93.2953V82.1406H71.6562V93.3125H75.5156V77.1562H70.7656Z" fill="#FFD683"/>
<path d="M65.8672 80.7656C66.1195 80.7656 66.3125 80.5422 66.3125 80.25V78.7031C66.3125 78.4109 66.1195 78.1875 65.8672 78.1875C65.6148 78.1875 65.4219 78.4109 65.4219 78.7031V80.25C65.4219 80.5422 65.6148 80.7656 65.8672 80.7656ZM67.5 80.7656C67.7523 80.7656 67.9453 80.5422 67.9453 80.25V78.7031C67.9453 78.4109 67.7523 78.1875 67.5 78.1875C67.2477 78.1875 67.0547 78.4109 67.0547 78.7031V80.25C67.0547 80.5422 67.2477 80.7656 67.5 80.7656ZM69.1328 80.7656C69.3852 80.7656 69.5781 80.5422 69.5781 80.25V78.7031C69.5781 78.4109 69.3852 78.1875 69.1328 78.1875C68.8805 78.1875 68.6875 78.4109 68.6875 78.7031V80.25C68.6875 80.5422 68.8805 80.7656 69.1328 80.7656Z" fill="#3F4A54"/>
<path d="M76.4062 92.7109H75.9609V80.7656H76.4062C76.6586 80.7656 76.8516 80.5422 76.8516 80.25C76.8516 79.9578 76.6586 79.7344 76.4062 79.7344H75.9609V77.6719H76.4062C76.6586 77.6719 76.8516 77.4484 76.8516 77.1562C76.8516 76.8641 76.6586 76.6406 76.4062 76.6406H71.2109V76.2969C71.2109 76.1594 71.1664 76.0219 71.0773 75.9359C71.0031 75.8328 70.8844 75.7812 70.7656 75.7812H69.5336C69.682 75.1453 69.9492 74.5609 70.3352 74.0625C70.4984 73.8562 70.4984 73.5297 70.3203 73.3406C70.1422 73.1516 69.8602 73.1516 69.6969 73.3578C69.1477 74.0453 68.7766 74.8703 68.6281 75.7641H67.9453V72.6875C67.9453 72.3953 67.7523 72.1719 67.5 72.1719C67.2477 72.1719 67.0547 72.3953 67.0547 72.6875V75.7812H66.3719C66.2086 74.8703 65.8523 74.0453 65.3031 73.375C65.1398 73.1687 64.8578 73.1516 64.6797 73.3578C64.5016 73.5469 64.4867 73.8734 64.6648 74.0797C65.0656 74.5609 65.3328 75.1453 65.4664 75.7984H64.2344C63.982 75.7984 63.7891 76.0219 63.7891 76.3141V76.6578H58.5938C58.3414 76.6578 58.1484 76.8813 58.1484 77.1734C58.1484 77.4656 58.3414 77.6891 58.5938 77.6891H59.0391V79.7516H58.5938C58.3414 79.7516 58.1484 79.975 58.1484 80.2672C58.1484 80.5594 58.3414 80.7828 58.5938 80.7828H59.0391V92.8141H58.5938C58.3414 92.8141 58.1484 93.0547 58.1484 93.3297C58.1484 93.6219 58.3414 93.8453 58.5938 93.8453L76.4062 93.7594C76.6586 93.7594 76.8516 93.5187 76.8516 93.2437C76.8516 92.9516 76.6586 92.7109 76.4062 92.7109ZM62.8984 82.6562V92.7797H61.8594V82.6562H62.8984ZM63.7891 82.6562H71.2109V92.7453L63.7891 92.7797V82.6562ZM72.1016 82.6562H73.1406V92.7281H72.1016V82.6562ZM74.0312 82.6562H75.0703V92.7281H74.0312V82.6562ZM75.0703 77.6719V79.7344H73.2891V79.2188C73.2891 78.9266 73.0961 78.7031 72.8438 78.7031H71.2109V77.6719H75.0703ZM59.9297 77.6719H63.7891V78.7031H62.3047C62.0523 78.7031 61.8594 78.9266 61.8594 79.2188V79.7344H59.9297V77.6719ZM64.2344 80.7656C64.4867 80.7656 64.6797 80.5422 64.6797 80.25V76.8125H70.3203V77.1562V79.2188V80.25C70.3203 80.5422 70.5133 80.7656 70.7656 80.7656H75.0703V81.625H59.9297V80.7656H64.2344ZM59.9297 82.6562H60.9688V92.7797H59.9297V82.6562Z" fill="#3F4A54"/>
</g>
<defs>
<filter id="filter0_d" x="0" y="0" width="137" height="167" filterUnits="userSpaceOnUse" color-interpolation-filters="sRGB">
<feFlood flood-opacity="0" result="BackgroundImageFix"/>
<feColorMatrix in="SourceAlpha" type="matrix" values="0 0 0 0 0 0 0 0 0 0 0 0 0 0 0 0 0 0 127 0"/>
<feOffset dy="4"/>
<feGaussianBlur stdDeviation="2"/>
<feColorMatrix type="matrix" values="0 0 0 0 0 0 0 0 0 0 0 0 0 0 0 0 0 0 0.25 0"/>
<feBlend mode="normal" in2="BackgroundImageFix" result="effect1_dropShadow"/>
<feBlend mode="normal" in="SourceGraphic" in2="effect1_dropShadow" result="shape"/>
</filter>
<filter id="filter1_d" x="22.5039" y="39.6279" width="94.6548" height="27.4787" filterUnits="userSpaceOnUse" color-interpolation-filters="sRGB">
<feFlood flood-opacity="0" result="BackgroundImageFix"/>
<feColorMatrix in="SourceAlpha" type="matrix" values="0 0 0 0 0 0 0 0 0 0 0 0 0 0 0 0 0 0 127 0"/>
<feOffset dy="4"/>
<feGaussianBlur stdDeviation="2"/>
<feColorMatrix type="matrix" values="0 0 0 0 0 0 0 0 0 0 0 0 0 0 0 0 0 0 0.25 0"/>
<feBlend mode="normal" in2="BackgroundImageFix" result="effect1_dropShadow"/>
<feBlend mode="normal" in="SourceGraphic" in2="effect1_dropShadow" result="shape"/>
</filter>
</defs>
</svg>
