<svg width="7" height="12" viewBox="0 0 7 12" fill="none" xmlns="http://www.w3.org/2000/svg">
<path d="M3.96791 9.88843C3.52585 9.88843 3.08021 9.70215 2.63102 9.32959L2.54011 9.75H0.967914L2.45455 3.06958L4.07487 2.8645L2.75936 8.75024C2.959 8.89038 3.16756 8.96045 3.38503 8.96045C3.59537 8.96045 3.79501 8.89722 3.98396 8.77075C4.17647 8.64429 4.35294 8.46484 4.51337 8.23242C4.80927 7.80518 5.04991 7.2207 5.23529 6.479C5.40285 5.78516 5.48663 5.07251 5.48663 4.34106C5.48663 3.65747 5.34046 3.14819 5.04813 2.81323C4.77718 2.50903 4.39037 2.35693 3.8877 2.35693C3.48128 2.35693 3.10339 2.41504 2.75401 2.53125C2.40463 2.64746 2.1016 2.81494 1.84492 3.03369C1.58111 3.25928 1.3779 3.53101 1.23529 3.84888C1.09269 4.16675 1.02139 4.52051 1.02139 4.91016C1.02139 5.12891 1.04635 5.30322 1.09626 5.43311C1.11052 5.47754 1.12834 5.51685 1.14973 5.55103C1.16399 5.57495 1.17112 5.59888 1.17112 5.6228C0.789661 5.6228 0.499109 5.54761 0.299465 5.39722C0.0998217 5.24341 0 4.9939 0 4.64868C0 4.41284 0.0481283 4.18042 0.144385 3.95142C0.240642 3.71899 0.379679 3.49854 0.561497 3.29004C0.73975 3.08496 0.953654 2.89697 1.20321 2.72607C1.45633 2.55176 1.73262 2.40137 2.03209 2.2749C2.66667 2.0083 3.34759 1.875 4.07487 1.875C4.74866 1.875 5.31551 2.01685 5.7754 2.30054C6.19608 2.56372 6.5098 2.92944 6.71658 3.39771C6.90553 3.84204 7 4.34277 7 4.8999C7 5.29297 6.96257 5.69116 6.8877 6.09448C6.8164 6.4978 6.71301 6.88745 6.57754 7.26343C6.44207 7.63257 6.27986 7.97778 6.09091 8.29907C5.90553 8.61694 5.70053 8.8938 5.47594 9.12964C5.24421 9.37231 5 9.5603 4.74332 9.6936C4.4902 9.82349 4.23173 9.88843 3.96791 9.88843Z" fill="#8DFBC9"/>
<path d="M3.06494 0H3.84721V12H3.06494V0Z" fill="#8DFBC9"/>
<path d="M4.62949 0H5.41177V12H4.62949V0Z" fill="#8DFBC9"/>
</svg>
